<svg xmlns="http://www.w3.org/2000/svg" width="750" height="1334" viewBox="0 0 750 1334">
  <defs>
    <linearGradient id="bg-cm" x1="0%" y1="0%" x2="100%" y2="100%">
      <stop offset="0%" style="stop-color:#18181b"/>
      <stop offset="100%" style="stop-color:#27272a"/>
    </linearGradient>
    <linearGradient id="card-cm" x1="0%" y1="0%" x2="0%" y2="100%">
      <stop offset="0%" style="stop-color:#3f3f46"/>
      <stop offset="100%" style="stop-color:#27272a"/>
    </linearGradient>
    <linearGradient id="accent-cm" x1="0%" y1="0%" x2="100%" y2="0%">
      <stop offset="0%" style="stop-color:#8b5cf6"/>
      <stop offset="100%" style="stop-color:#a855f7"/>
    </linearGradient>
  </defs>

  <!-- Background -->
  <rect width="750" height="1334" fill="url(#bg-cm)"/>

  <!-- Status bar -->
  <rect x="0" y="0" width="750" height="44" fill="#09090b"/>
  <text x="375" y="30" font-family="system-ui, sans-serif" font-size="14" fill="#fafafa" text-anchor="middle">9:41</text>

  <!-- Header -->
  <rect x="0" y="44" width="750" height="56" fill="#09090b"/>
  <text x="32" y="80" font-family="system-ui, sans-serif" font-size="18" font-weight="600" fill="#fafafa">AppStandard Contacts</text>

  <!-- Search bar -->
  <rect x="24" y="116" width="702" height="48" rx="10" fill="#27272a"/>
  <text x="56" y="146" font-family="system-ui, sans-serif" font-size="15" fill="#71717a">Search contacts...</text>

  <!-- Section header -->
  <text x="32" y="204" font-family="system-ui, sans-serif" font-size="13" fill="#8b5cf6" font-weight="600">A</text>

  <!-- Contact cards -->
  <g transform="translate(24, 220)">
    <rect x="0" y="0" width="702" height="80" rx="12" fill="url(#card-cm)"/>
    <circle cx="48" cy="40" r="28" fill="#3b82f6"/>
    <text x="48" y="47" font-family="system-ui, sans-serif" font-size="18" font-weight="500" fill="#fff" text-anchor="middle">AJ</text>
    <text x="92" y="34" font-family="system-ui, sans-serif" font-size="16" font-weight="500" fill="#fafafa">Alice Johnson</text>
    <text x="92" y="56" font-family="system-ui, sans-serif" font-size="14" fill="#a1a1aa">alice@example.com</text>
  </g>

  <g transform="translate(24, 312)">
    <rect x="0" y="0" width="702" height="80" rx="12" fill="url(#card-cm)"/>
    <circle cx="48" cy="40" r="28" fill="#f59e0b"/>
    <text x="48" y="47" font-family="system-ui, sans-serif" font-size="18" font-weight="500" fill="#fff" text-anchor="middle">AM</text>
    <text x="92" y="34" font-family="system-ui, sans-serif" font-size="16" font-weight="500" fill="#fafafa">Andrew Miller</text>
    <text x="92" y="56" font-family="system-ui, sans-serif" font-size="14" fill="#a1a1aa">andrew.m@company.com</text>
  </g>

  <!-- Section header B -->
  <text x="32" y="432" font-family="system-ui, sans-serif" font-size="13" fill="#8b5cf6" font-weight="600">B</text>

  <g transform="translate(24, 448)">
    <rect x="0" y="0" width="702" height="80" rx="12" fill="url(#card-cm)"/>
    <circle cx="48" cy="40" r="28" fill="#22c55e"/>
    <text x="48" y="47" font-family="system-ui, sans-serif" font-size="18" font-weight="500" fill="#fff" text-anchor="middle">BS</text>
    <text x="92" y="34" font-family="system-ui, sans-serif" font-size="16" font-weight="500" fill="#fafafa">Bob Smith</text>
    <text x="92" y="56" font-family="system-ui, sans-serif" font-size="14" fill="#a1a1aa">bob.smith@work.com</text>
  </g>

  <!-- Section header C -->
  <text x="32" y="568" font-family="system-ui, sans-serif" font-size="13" fill="#8b5cf6" font-weight="600">C</text>

  <g transform="translate(24, 584)">
    <rect x="0" y="0" width="702" height="80" rx="12" fill="url(#card-cm)"/>
    <circle cx="48" cy="40" r="28" fill="#ec4899"/>
    <text x="48" y="47" font-family="system-ui, sans-serif" font-size="18" font-weight="500" fill="#fff" text-anchor="middle">CD</text>
    <text x="92" y="34" font-family="system-ui, sans-serif" font-size="16" font-weight="500" fill="#fafafa">Carol Davis</text>
    <text x="92" y="56" font-family="system-ui, sans-serif" font-size="14" fill="#a1a1aa">carol.d@company.org</text>
  </g>

  <g transform="translate(24, 676)">
    <rect x="0" y="0" width="702" height="80" rx="12" fill="url(#card-cm)"/>
    <circle cx="48" cy="40" r="28" fill="#06b6d4"/>
    <text x="48" y="47" font-family="system-ui, sans-serif" font-size="18" font-weight="500" fill="#fff" text-anchor="middle">CW</text>
    <text x="92" y="34" font-family="system-ui, sans-serif" font-size="16" font-weight="500" fill="#fafafa">Chris Wilson</text>
    <text x="92" y="56" font-family="system-ui, sans-serif" font-size="14" fill="#a1a1aa">chris@techstartup.io</text>
  </g>

  <!-- Section header D -->
  <text x="32" y="796" font-family="system-ui, sans-serif" font-size="13" fill="#8b5cf6" font-weight="600">D</text>

  <g transform="translate(24, 812)">
    <rect x="0" y="0" width="702" height="80" rx="12" fill="url(#card-cm)"/>
    <circle cx="48" cy="40" r="28" fill="#ef4444"/>
    <text x="48" y="47" font-family="system-ui, sans-serif" font-size="18" font-weight="500" fill="#fff" text-anchor="middle">DL</text>
    <text x="92" y="34" font-family="system-ui, sans-serif" font-size="16" font-weight="500" fill="#fafafa">Diana Lee</text>
    <text x="92" y="56" font-family="system-ui, sans-serif" font-size="14" fill="#a1a1aa">diana.lee@email.com</text>
  </g>

  <!-- Alphabet quick scroll -->
  <g transform="translate(720, 220)" font-family="system-ui, sans-serif" font-size="10" fill="#71717a">
    <text x="0" y="0" fill="#8b5cf6">A</text>
    <text x="0" y="20">B</text>
    <text x="0" y="40">C</text>
    <text x="0" y="60">D</text>
    <text x="0" y="80">E</text>
    <text x="0" y="100">F</text>
    <text x="0" y="120">G</text>
    <text x="0" y="140">H</text>
    <text x="0" y="160">I</text>
    <text x="0" y="180">J</text>
  </g>

  <!-- FAB -->
  <circle cx="670" cy="1150" r="32" fill="url(#accent-cm)"/>
  <line x1="654" y1="1150" x2="686" y2="1150" stroke="#fff" stroke-width="3" stroke-linecap="round"/>
  <line x1="670" y1="1134" x2="670" y2="1166" stroke="#fff" stroke-width="3" stroke-linecap="round"/>

  <!-- Bottom navigation -->
  <rect x="0" y="1250" width="750" height="84" fill="#09090b"/>
  <g font-family="system-ui, sans-serif" font-size="11" text-anchor="middle">
    <circle cx="150" cy="1280" r="24" fill="url(#accent-cm)" opacity="0.2"/>
    <text x="150" y="1285" fill="#8b5cf6">Contacts</text>
    <text x="375" y="1285" fill="#71717a">Groups</text>
    <text x="600" y="1285" fill="#71717a">Settings</text>
  </g>

  <!-- Home indicator -->
  <rect x="275" y="1310" width="200" height="5" rx="2.5" fill="#3f3f46"/>
</svg>
